STARTFONT 2.1
FONT -FontForge-Boston-Regular-R-Normal--20-200-72-72-P-122-MacRoman-0
SIZE 20 72 72
FONTBOUNDINGBOX 28 20 0 -4
COMMENT "Generated by fontforge, http://fontforge.sourceforge.net"
STARTPROPERTIES 30
FOUNDRY "FontForge"
FAMILY_NAME "Boston"
WEIGHT_NAME "Regular"
SLANT "R"
SETWIDTH_NAME "Normal"
ADD_STYLE_NAME ""
PIXEL_SIZE 20
POINT_SIZE 200
RESOLUTION_X 72
RESOLUTION_Y 72
SPACING "P"
AVERAGE_WIDTH 122
CHARSET_REGISTRY "MacRoman"
CHARSET_ENCODING "0"
FONTNAME_REGISTRY ""
CHARSET_COLLECTIONS "MacRoman"
FONT_NAME "Boston"
FACE_NAME "Boston"
FONT_VERSION "001.000"
FONT_ASCENT 16
FONT_DESCENT 4
UNDERLINE_POSITION -2
UNDERLINE_THICKNESS 1
X_HEIGHT 7
CAP_HEIGHT 11
RAW_ASCENT 800
RAW_DESCENT 200
NORM_SPACE 8
AVG_LOWERCASE_WIDTH 116
AVG_UPPERCASE_WIDTH 154
ENDPROPERTIES
CHARS 227
STARTCHAR uni0000
ENCODING 0
SWIDTH 0 0
DWIDTH 0 0
BBX 1 1 0 0
BITMAP
00
ENDCHAR
STARTCHAR uni0009
ENCODING 9
SWIDTH 0 0
DWIDTH 0 0
BBX 1 1 0 0
BITMAP
00
ENDCHAR
STARTCHAR uni000A
ENCODING 10
SWIDTH 0 0
DWIDTH 0 0
BBX 1 1 0 0
BITMAP
00
ENDCHAR
STARTCHAR uni000B
ENCODING 11
SWIDTH 0 0
DWIDTH 0 0
BBX 1 1 0 0
BITMAP
00
ENDCHAR
STARTCHAR uni000C
ENCODING 12
SWIDTH 0 0
DWIDTH 0 0
BBX 1 1 0 0
BITMAP
00
ENDCHAR
STARTCHAR uni000D
ENCODING 13
SWIDTH 0 0
DWIDTH 0 0
BBX 1 1 0 0
BITMAP
00
ENDCHAR
STARTCHAR uni001F
ENCODING 31
SWIDTH 0 0
DWIDTH 0 0
BBX 1 1 0 0
BITMAP
00
ENDCHAR
STARTCHAR space
ENCODING 32
SWIDTH 461 0
DWIDTH 8 0
BBX 1 1 8 -4
BITMAP
00
ENDCHAR
STARTCHAR exclam
ENCODING 33
SWIDTH 461 0
DWIDTH 10 0
BBX 1 12 4 0
BITMAP
80
80
80
80
80
80
80
80
00
00
00
80
ENDCHAR
STARTCHAR quotedbl
ENCODING 34
SWIDTH 461 0
DWIDTH 12 0
BBX 4 4 4 8
BITMAP
90
90
90
90
ENDCHAR
STARTCHAR numbersign
ENCODING 35
SWIDTH 615 0
DWIDTH 15 0
BBX 12 10 2 4
BITMAP
0480
0480
0480
7FF0
0900
0900
FFE0
1200
1200
1200
ENDCHAR
STARTCHAR dollar
ENCODING 36
SWIDTH 615 0
DWIDTH 14 0
BBX 9 16 2 -2
BITMAP
0800
0800
3E80
4980
8880
8800
4800
3E00
0900
0880
0880
8880
C900
BE00
0800
0800
ENDCHAR
STARTCHAR percent
ENCODING 37
SWIDTH 692 0
DWIDTH 14 0
BBX 11 12 2 0
BITMAP
3FC0
4840
8480
8500
4A00
3400
0580
0A40
1420
2420
4240
4180
ENDCHAR
STARTCHAR ampersand
ENCODING 38
SWIDTH 692 0
DWIDTH 14 0
BBX 11 12 2 0
BITMAP
3800
4400
4400
2800
1000
2800
4440
8280
8100
8280
4440
3820
ENDCHAR
STARTCHAR quotesingle
ENCODING 39
SWIDTH 307 0
DWIDTH 8 0
BBX 1 4 4 8
BITMAP
80
80
80
80
ENDCHAR
STARTCHAR parenleft
ENCODING 40
SWIDTH 461 0
DWIDTH 12 0
BBX 5 18 5 -4
BITMAP
08
10
20
20
40
40
80
80
80
80
80
80
40
40
20
20
10
08
ENDCHAR
STARTCHAR parenright
ENCODING 41
SWIDTH 461 0
DWIDTH 10 0
BBX 5 18 3 -4
BITMAP
80
40
20
20
10
10
08
08
08
08
08
08
10
10
20
20
40
80
ENDCHAR
STARTCHAR asterisk
ENCODING 42
SWIDTH 461 0
DWIDTH 12 0
BBX 9 9 2 3
BITMAP
0800
8880
4900
2A00
1C00
2A00
4900
8880
0800
ENDCHAR
STARTCHAR plus
ENCODING 43
SWIDTH 615 0
DWIDTH 12 0
BBX 9 9 2 1
BITMAP
0800
0800
0800
0800
FF80
0800
0800
0800
0800
ENDCHAR
STARTCHAR comma
ENCODING 44
SWIDTH 461 0
DWIDTH 10 0
BBX 3 4 2 -3
BITMAP
60
20
40
80
ENDCHAR
STARTCHAR hyphen
ENCODING 45
SWIDTH 615 0
DWIDTH 12 0
BBX 9 1 2 5
BITMAP
FF80
ENDCHAR
STARTCHAR period
ENCODING 46
SWIDTH 461 0
DWIDTH 10 0
BBX 1 1 4 0
BITMAP
80
ENDCHAR
STARTCHAR slash
ENCODING 47
SWIDTH 461 0
DWIDTH 10 0
BBX 7 18 2 -4
BITMAP
02
02
04
04
04
08
08
08
10
10
20
20
20
40
40
40
80
80
ENDCHAR
STARTCHAR zero
ENCODING 48
SWIDTH 538 0
DWIDTH 10 0
BBX 7 12 2 0
BITMAP
38
44
82
82
82
82
82
82
82
82
44
38
ENDCHAR
STARTCHAR one
ENCODING 49
SWIDTH 538 0
DWIDTH 10 0
BBX 7 12 2 0
BITMAP
10
30
50
90
10
10
10
10
10
10
10
FE
ENDCHAR
STARTCHAR two
ENCODING 50
SWIDTH 538 0
DWIDTH 10 0
BBX 7 12 2 0
BITMAP
38
44
82
82
02
04
08
10
20
40
80
FE
ENDCHAR
STARTCHAR three
ENCODING 51
SWIDTH 538 0
DWIDTH 10 0
BBX 7 12 2 0
BITMAP
FE
04
08
10
38
04
02
02
02
82
44
38
ENDCHAR
STARTCHAR four
ENCODING 52
SWIDTH 538 0
DWIDTH 10 0
BBX 8 12 1 0
BITMAP
04
0C
14
24
24
44
84
FF
04
04
04
1F
ENDCHAR
STARTCHAR five
ENCODING 53
SWIDTH 538 0
DWIDTH 10 0
BBX 7 12 2 0
BITMAP
FC
80
80
80
B8
C4
82
02
02
82
44
38
ENDCHAR
STARTCHAR six
ENCODING 54
SWIDTH 538 0
DWIDTH 10 0
BBX 7 12 2 0
BITMAP
10
20
40
40
80
B8
C4
82
82
82
44
38
ENDCHAR
STARTCHAR seven
ENCODING 55
SWIDTH 538 0
DWIDTH 10 0
BBX 7 12 2 0
BITMAP
FE
82
82
04
04
08
08
10
10
20
20
20
ENDCHAR
STARTCHAR eight
ENCODING 56
SWIDTH 538 0
DWIDTH 10 0
BBX 7 12 2 0
BITMAP
38
44
82
82
44
38
44
82
82
82
44
38
ENDCHAR
STARTCHAR nine
ENCODING 57
SWIDTH 538 0
DWIDTH 10 0
BBX 7 12 2 0
BITMAP
38
44
82
82
82
46
3A
02
04
04
08
10
ENDCHAR
STARTCHAR colon
ENCODING 58
SWIDTH 461 0
DWIDTH 8 0
BBX 1 8 3 0
BITMAP
80
00
00
00
00
00
00
80
ENDCHAR
STARTCHAR semicolon
ENCODING 59
SWIDTH 461 0
DWIDTH 10 0
BBX 3 11 2 -3
BITMAP
20
00
00
00
00
00
00
60
20
40
80
ENDCHAR
STARTCHAR less
ENCODING 60
SWIDTH 615 0
DWIDTH 12 0
BBX 9 9 2 1
BITMAP
0080
0300
0C00
3000
C000
3000
0C00
0300
0080
ENDCHAR
STARTCHAR equal
ENCODING 61
SWIDTH 615 0
DWIDTH 12 0
BBX 9 5 2 3
BITMAP
FF80
0000
0000
0000
FF80
ENDCHAR
STARTCHAR greater
ENCODING 62
SWIDTH 615 0
DWIDTH 12 0
BBX 9 9 2 1
BITMAP
8000
6000
1800
0600
0180
0600
1800
6000
8000
ENDCHAR
STARTCHAR question
ENCODING 63
SWIDTH 538 0
DWIDTH 10 0
BBX 7 12 2 0
BITMAP
38
44
82
02
04
08
10
10
00
00
00
10
ENDCHAR
STARTCHAR at
ENCODING 64
SWIDTH 692 0
DWIDTH 16 0
BBX 13 12 2 -2
BITMAP
0F80
3060
4010
4710
8888
9048
9048
88C8
4770
4000
3000
0F80
ENDCHAR
STARTCHAR A
ENCODING 65
SWIDTH 769 0
DWIDTH 16 0
BBX 13 12 2 0
BITMAP
0200
0200
0500
0500
0880
0880
1040
1040
1FC0
2020
2020
F8F8
ENDCHAR
STARTCHAR B
ENCODING 66
SWIDTH 615 0
DWIDTH 14 0
BBX 11 12 2 0
BITMAP
FF80
2040
2020
2020
2040
3F80
2040
2020
2020
2020
2040
FF80
ENDCHAR
STARTCHAR C
ENCODING 67
SWIDTH 538 0
DWIDTH 14 0
BBX 11 12 2 0
BITMAP
0F20
30E0
4020
4020
8000
8000
8000
8000
4020
4020
30C0
0F00
ENDCHAR
STARTCHAR D
ENCODING 68
SWIDTH 615 0
DWIDTH 16 0
BBX 13 12 2 0
BITMAP
FF80
2060
2010
2010
2008
2008
2008
2008
2010
2010
2060
FF80
ENDCHAR
STARTCHAR E
ENCODING 69
SWIDTH 615 0
DWIDTH 14 0
BBX 11 12 2 0
BITMAP
FFE0
2020
2020
2000
2100
3F00
2100
2000
2000
2020
2020
FFE0
ENDCHAR
STARTCHAR F
ENCODING 70
SWIDTH 615 0
DWIDTH 14 0
BBX 11 12 2 0
BITMAP
FFE0
2020
2020
2000
2200
3E00
2200
2000
2000
2000
2000
F800
ENDCHAR
STARTCHAR G
ENCODING 71
SWIDTH 615 0
DWIDTH 16 0
BBX 13 12 2 0
BITMAP
0F90
3070
4010
4010
8000
8000
81F8
8008
4008
4018
3068
0F88
ENDCHAR
STARTCHAR H
ENCODING 72
SWIDTH 692 0
DWIDTH 16 0
BBX 13 12 2 0
BITMAP
F8F8
2020
2020
2020
2020
3FE0
2020
2020
2020
2020
2020
F8F8
ENDCHAR
STARTCHAR I
ENCODING 73
SWIDTH 384 0
DWIDTH 8 0
BBX 5 12 2 0
BITMAP
F8
20
20
20
20
20
20
20
20
20
20
F8
ENDCHAR
STARTCHAR J
ENCODING 74
SWIDTH 615 0
DWIDTH 12 0
BBX 9 12 2 0
BITMAP
0F80
0200
0200
0200
0200
0200
0200
8200
8200
8200
4400
3800
ENDCHAR
STARTCHAR K
ENCODING 75
SWIDTH 692 0
DWIDTH 16 0
BBX 13 12 2 0
BITMAP
F8F8
2040
2080
2100
2200
2400
2A00
3100
2080
2040
2020
F8F8
ENDCHAR
STARTCHAR L
ENCODING 76
SWIDTH 615 0
DWIDTH 14 0
BBX 11 12 2 0
BITMAP
F800
2000
2000
2000
2000
2000
2000
2000
2000
2020
2020
FFE0
ENDCHAR
STARTCHAR M
ENCODING 77
SWIDTH 923 0
DWIDTH 20 0
BBX 17 12 2 0
BITMAP
F00780
280A00
280A00
241200
241200
222200
222200
214200
214200
208200
208200
F80F80
ENDCHAR
STARTCHAR N
ENCODING 78
SWIDTH 769 0
DWIDTH 18 0
BBX 15 12 2 0
BITMAP
F03E
2808
2408
2408
2208
2108
2108
2088
2048
2048
2028
F818
ENDCHAR
STARTCHAR O
ENCODING 79
SWIDTH 615 0
DWIDTH 16 0
BBX 13 12 2 0
BITMAP
0F80
3060
4010
4010
8008
8008
8008
8008
4010
4010
3060
0F80
ENDCHAR
STARTCHAR P
ENCODING 80
SWIDTH 615 0
DWIDTH 14 0
BBX 11 12 2 0
BITMAP
FF80
2040
2020
2020
2020
2040
3F80
2000
2000
2000
2000
F800
ENDCHAR
STARTCHAR Q
ENCODING 81
SWIDTH 615 0
DWIDTH 16 0
BBX 13 14 2 -2
BITMAP
0F80
3060
4010
4010
8008
8008
8008
8008
4110
4090
3060
0FC0
0020
0018
ENDCHAR
STARTCHAR R
ENCODING 82
SWIDTH 692 0
DWIDTH 16 0
BBX 13 12 2 0
BITMAP
FF80
2040
2020
2020
2020
2040
3F80
2100
2080
2040
2020
F8F8
ENDCHAR
STARTCHAR S
ENCODING 83
SWIDTH 615 0
DWIDTH 14 0
BBX 11 12 2 0
BITMAP
3FA0
4060
8020
8020
4000
3C00
0380
0040
8020
8020
C040
BF80
ENDCHAR
STARTCHAR T
ENCODING 84
SWIDTH 615 0
DWIDTH 16 0
BBX 13 12 2 0
BITMAP
FFF8
8208
8208
0200
0200
0200
0200
0200
0200
0200
0200
0F80
ENDCHAR
STARTCHAR U
ENCODING 85
SWIDTH 769 0
DWIDTH 18 0
BBX 15 12 2 0
BITMAP
F83E
2008
2008
2008
2008
2008
2008
2008
2008
1010
0820
07C0
ENDCHAR
STARTCHAR V
ENCODING 86
SWIDTH 769 0
DWIDTH 18 0
BBX 15 12 2 0
BITMAP
F83E
2008
1010
1010
0820
0820
0440
0440
0280
0280
0100
0100
ENDCHAR
STARTCHAR W
ENCODING 87
SWIDTH 1076 0
DWIDTH 24 0
BBX 21 12 2 0
BITMAP
F800F8
200020
100040
100040
082080
082080
045100
045100
028A00
028A00
010400
010400
ENDCHAR
STARTCHAR X
ENCODING 88
SWIDTH 692 0
DWIDTH 16 0
BBX 13 12 2 0
BITMAP
F8F8
2020
1040
0880
0500
0200
0500
0880
1040
1040
2020
F8F8
ENDCHAR
STARTCHAR Y
ENCODING 89
SWIDTH 769 0
DWIDTH 16 0
BBX 13 12 2 0
BITMAP
F8F8
2020
1040
1040
0880
0500
0200
0200
0200
0200
0200
0F80
ENDCHAR
STARTCHAR Z
ENCODING 90
SWIDTH 615 0
DWIDTH 14 0
BBX 11 12 2 0
BITMAP
FFE0
8020
8040
0080
0100
0600
0800
1000
2000
4020
8020
FFE0
ENDCHAR
STARTCHAR bracketleft
ENCODING 91
SWIDTH 461 0
DWIDTH 10 0
BBX 5 18 4 -4
BITMAP
F8
80
80
80
80
80
80
80
80
80
80
80
80
80
80
80
80
F8
ENDCHAR
STARTCHAR backslash
ENCODING 92
SWIDTH 461 0
DWIDTH 10 0
BBX 7 18 2 -4
BITMAP
80
80
40
40
40
20
20
20
10
10
08
08
08
04
04
04
02
02
ENDCHAR
STARTCHAR bracketright
ENCODING 93
SWIDTH 461 0
DWIDTH 10 0
BBX 5 18 2 -4
BITMAP
F8
08
08
08
08
08
08
08
08
08
08
08
08
08
08
08
08
F8
ENDCHAR
STARTCHAR asciicircum
ENCODING 94
SWIDTH 461 0
DWIDTH 12 0
BBX 7 4 3 8
BITMAP
10
28
44
82
ENDCHAR
STARTCHAR underscore
ENCODING 95
SWIDTH 538 0
DWIDTH 12 0
BBX 12 1 0 0
BITMAP
FFF0
ENDCHAR
STARTCHAR grave
ENCODING 96
SWIDTH 307 0
DWIDTH 8 0
BBX 4 4 2 8
BITMAP
80
40
20
10
ENDCHAR
STARTCHAR a
ENCODING 97
SWIDTH 615 0
DWIDTH 12 0
BBX 9 8 2 0
BITMAP
7800
8400
0A00
3200
4200
8200
8600
7980
ENDCHAR
STARTCHAR b
ENCODING 98
SWIDTH 615 0
DWIDTH 12 0
BBX 9 12 2 0
BITMAP
E000
2000
2000
2000
2E00
3100
2080
2080
2080
2080
3100
EE00
ENDCHAR
STARTCHAR c
ENCODING 99
SWIDTH 538 0
DWIDTH 10 0
BBX 7 8 2 0
BITMAP
3C
42
80
80
80
80
42
3C
ENDCHAR
STARTCHAR d
ENCODING 100
SWIDTH 615 0
DWIDTH 12 0
BBX 9 12 2 0
BITMAP
0E00
0200
0200
0200
3A00
4600
8200
8200
8200
8200
4600
3B80
ENDCHAR
STARTCHAR e
ENCODING 101
SWIDTH 538 0
DWIDTH 10 0
BBX 7 8 2 0
BITMAP
38
44
82
9C
E0
80
44
38
ENDCHAR
STARTCHAR f
ENCODING 102
SWIDTH 384 0
DWIDTH 8 0
BBX 6 12 2 0
BITMAP
0C
10
20
20
F8
20
20
20
20
20
20
F8
ENDCHAR
STARTCHAR g
ENCODING 103
SWIDTH 538 0
DWIDTH 10 0
BBX 7 12 2 -4
BITMAP
36
48
84
84
48
70
80
7C
82
82
82
7C
ENDCHAR
STARTCHAR h
ENCODING 104
SWIDTH 692 0
DWIDTH 14 0
BBX 11 12 2 0
BITMAP
E000
2000
2000
2000
2F00
3080
2080
2080
2080
2080
2080
F9E0
ENDCHAR
STARTCHAR i
ENCODING 105
SWIDTH 307 0
DWIDTH 8 0
BBX 5 12 2 0
BITMAP
20
00
00
00
E0
20
20
20
20
20
20
F8
ENDCHAR
STARTCHAR j
ENCODING 106
SWIDTH 384 0
DWIDTH 8 0
BBX 7 16 0 -4
BITMAP
02
00
00
00
0E
02
02
02
02
02
02
02
82
82
44
38
ENDCHAR
STARTCHAR k
ENCODING 107
SWIDTH 615 0
DWIDTH 14 0
BBX 11 12 2 0
BITMAP
E000
2000
2000
2000
27C0
2200
2400
2800
3400
2200
2100
FBE0
ENDCHAR
STARTCHAR l
ENCODING 108
SWIDTH 307 0
DWIDTH 8 0
BBX 5 12 2 0
BITMAP
E0
20
20
20
20
20
20
20
20
20
20
F8
ENDCHAR
STARTCHAR m
ENCODING 109
SWIDTH 1076 0
DWIDTH 20 0
BBX 17 8 2 0
BITMAP
E71C00
28A200
30C200
208200
208200
208200
208200
F9CF80
ENDCHAR
STARTCHAR n
ENCODING 110
SWIDTH 692 0
DWIDTH 14 0
BBX 12 8 1 0
BITMAP
E780
2840
3040
2040
2040
2040
2040
F9F0
ENDCHAR
STARTCHAR o
ENCODING 111
SWIDTH 538 0
DWIDTH 10 0
BBX 7 8 2 0
BITMAP
38
44
82
82
82
82
44
38
ENDCHAR
STARTCHAR p
ENCODING 112
SWIDTH 615 0
DWIDTH 12 0
BBX 9 12 2 -4
BITMAP
EE00
3100
2080
2080
2080
2080
3100
2E00
2000
2000
2000
F800
ENDCHAR
STARTCHAR q
ENCODING 113
SWIDTH 615 0
DWIDTH 12 0
BBX 9 12 2 -4
BITMAP
3B80
4600
8200
8200
8200
8200
4600
3A00
0200
0200
0200
0F80
ENDCHAR
STARTCHAR r
ENCODING 114
SWIDTH 538 0
DWIDTH 12 0
BBX 9 8 2 0
BITMAP
E700
2880
3000
2000
2000
2000
2000
F800
ENDCHAR
STARTCHAR s
ENCODING 115
SWIDTH 461 0
DWIDTH 10 0
BBX 7 8 2 0
BITMAP
7C
82
80
70
0C
02
82
7C
ENDCHAR
STARTCHAR t
ENCODING 116
SWIDTH 461 0
DWIDTH 8 0
BBX 6 11 1 0
BITMAP
20
20
20
FC
20
20
20
20
24
24
18
ENDCHAR
STARTCHAR u
ENCODING 117
SWIDTH 692 0
DWIDTH 14 0
BBX 12 8 1 0
BITMAP
E1C0
2040
2040
2040
2040
20C0
2140
1E70
ENDCHAR
STARTCHAR v
ENCODING 118
SWIDTH 692 0
DWIDTH 14 0
BBX 13 8 1 0
BITMAP
F8F8
2020
1040
0880
0880
0500
0200
0200
ENDCHAR
STARTCHAR w
ENCODING 119
SWIDTH 923 0
DWIDTH 20 0
BBX 19 8 1 0
BITMAP
F803E0
200080
104100
08A200
08A200
051400
020800
020800
ENDCHAR
STARTCHAR x
ENCODING 120
SWIDTH 615 0
DWIDTH 12 0
BBX 10 8 1 0
BITMAP
F3C0
2100
1200
0C00
0C00
1200
2100
F3C0
ENDCHAR
STARTCHAR y
ENCODING 121
SWIDTH 692 0
DWIDTH 14 0
BBX 13 12 1 -4
BITMAP
F8F8
2020
1040
1040
0880
0880
0500
0200
0400
0400
0800
3000
ENDCHAR
STARTCHAR z
ENCODING 122
SWIDTH 538 0
DWIDTH 11 0
BBX 8 8 2 0
BITMAP
FF
82
84
08
10
21
41
FF
ENDCHAR
STARTCHAR braceleft
ENCODING 123
SWIDTH 538 0
DWIDTH 14 0
BBX 9 18 4 -4
BITMAP
0380
0400
0800
0800
0800
0800
0800
1000
E000
1000
0800
0800
0800
0800
0800
0800
0400
0380
ENDCHAR
STARTCHAR bar
ENCODING 124
SWIDTH 153 0
DWIDTH 4 0
BBX 1 18 2 -4
BITMAP
80
80
80
80
80
80
80
80
80
80
80
80
80
80
80
80
80
80
ENDCHAR
STARTCHAR braceright
ENCODING 125
SWIDTH 538 0
DWIDTH 14 0
BBX 9 18 2 -4
BITMAP
E000
1000
0800
0800
0800
0800
0800
0400
0380
0400
0800
0800
0800
0800
0800
0800
1000
E000
ENDCHAR
STARTCHAR asciitilde
ENCODING 126
SWIDTH 615 0
DWIDTH 12 0
BBX 9 3 2 4
BITMAP
3080
4900
8600
ENDCHAR
STARTCHAR uni007F
ENCODING 127
SWIDTH 0 0
DWIDTH 0 0
BBX 1 1 0 -4
BITMAP
00
ENDCHAR
STARTCHAR Adieresis
ENCODING 128
SWIDTH 769 0
DWIDTH 16 0
BBX 13 15 2 0
BITMAP
0880
0000
0000
0200
0200
0500
0500
0880
0880
1040
1040
1FC0
2020
2020
F8F8
ENDCHAR
STARTCHAR Aring
ENCODING 129
SWIDTH 769 0
DWIDTH 16 0
BBX 13 16 2 0
BITMAP
0600
0900
0900
0600
0200
0200
0500
0500
0880
0880
1040
1040
1FC0
2020
2020
F8F8
ENDCHAR
STARTCHAR Ccedilla
ENCODING 130
SWIDTH 538 0
DWIDTH 14 0
BBX 11 16 2 -4
BITMAP
0F20
30E0
4020
4020
8000
8000
8000
8000
4020
4020
30C0
0F00
0200
0100
0100
0E00
ENDCHAR
STARTCHAR Eacute
ENCODING 131
SWIDTH 615 0
DWIDTH 14 0
BBX 11 16 2 0
BITMAP
0100
0200
0400
0000
FFE0
2020
2020
2000
2100
3F00
2100
2000
2000
2020
2020
FFE0
ENDCHAR
STARTCHAR Ntilde
ENCODING 132
SWIDTH 769 0
DWIDTH 18 0
BBX 15 16 2 0
BITMAP
0E08
1110
20E0
0000
F03E
2808
2408
2408
2208
2108
2108
2088
2048
2048
2028
F818
ENDCHAR
STARTCHAR Odieresis
ENCODING 133
SWIDTH 615 0
DWIDTH 16 0
BBX 13 15 2 0
BITMAP
1040
0000
0000
0F80
3060
4010
4010
8008
8008
8008
8008
4010
4010
3060
0F80
ENDCHAR
STARTCHAR Udieresis
ENCODING 134
SWIDTH 769 0
DWIDTH 18 0
BBX 15 15 2 0
BITMAP
0820
0000
0000
F83E
2008
2008
2008
2008
2008
2008
2008
2008
1010
0820
07C0
ENDCHAR
STARTCHAR aacute
ENCODING 135
SWIDTH 615 0
DWIDTH 12 0
BBX 9 13 2 0
BITMAP
0800
1000
2000
0000
0000
7800
8400
0A00
3200
4200
8200
8600
7980
ENDCHAR
STARTCHAR agrave
ENCODING 136
SWIDTH 615 0
DWIDTH 12 0
BBX 9 13 2 0
BITMAP
2000
1000
0800
0000
0000
7800
8400
0A00
3200
4200
8200
8600
7980
ENDCHAR
STARTCHAR acircumflex
ENCODING 137
SWIDTH 615 0
DWIDTH 12 0
BBX 9 13 2 0
BITMAP
1000
2800
4400
0000
0000
7800
8400
0A00
3200
4200
8200
8600
7980
ENDCHAR
STARTCHAR adieresis
ENCODING 138
SWIDTH 615 0
DWIDTH 12 0
BBX 9 12 2 0
BITMAP
4400
0000
0000
0000
7800
8400
0A00
3200
4200
8200
8600
7980
ENDCHAR
STARTCHAR atilde
ENCODING 139
SWIDTH 615 0
DWIDTH 12 0
BBX 9 13 2 0
BITMAP
3080
4900
8600
0000
0000
7800
8400
0A00
3200
4200
8200
8600
7980
ENDCHAR
STARTCHAR aring
ENCODING 140
SWIDTH 615 0
DWIDTH 12 0
BBX 9 14 2 0
BITMAP
3000
4800
4800
3000
0000
0000
7800
8400
0A00
3200
4200
8200
8600
7980
ENDCHAR
STARTCHAR ccedilla
ENCODING 141
SWIDTH 538 0
DWIDTH 10 0
BBX 7 12 2 -4
BITMAP
3C
42
80
80
80
80
42
3C
08
04
04
38
ENDCHAR
STARTCHAR eacute
ENCODING 142
SWIDTH 538 0
DWIDTH 10 0
BBX 7 13 2 0
BITMAP
08
10
20
00
00
38
44
82
9C
E0
80
44
38
ENDCHAR
STARTCHAR egrave
ENCODING 143
SWIDTH 538 0
DWIDTH 10 0
BBX 7 13 2 0
BITMAP
20
10
08
00
00
38
44
82
9C
E0
80
44
38
ENDCHAR
STARTCHAR ecircumflex
ENCODING 144
SWIDTH 538 0
DWIDTH 10 0
BBX 7 13 2 0
BITMAP
10
28
44
00
00
38
44
82
9C
E0
80
44
38
ENDCHAR
STARTCHAR edieresis
ENCODING 145
SWIDTH 538 0
DWIDTH 10 0
BBX 7 12 2 0
BITMAP
44
00
00
00
38
44
82
9C
E0
80
44
38
ENDCHAR
STARTCHAR iacute
ENCODING 146
SWIDTH 307 0
DWIDTH 8 0
BBX 5 13 2 0
BITMAP
10
20
40
00
00
E0
20
20
20
20
20
20
F8
ENDCHAR
STARTCHAR igrave
ENCODING 147
SWIDTH 307 0
DWIDTH 8 0
BBX 5 13 2 0
BITMAP
80
40
20
00
00
E0
20
20
20
20
20
20
F8
ENDCHAR
STARTCHAR icircumflex
ENCODING 148
SWIDTH 307 0
DWIDTH 8 0
BBX 5 13 2 0
BITMAP
20
50
88
00
00
E0
20
20
20
20
20
20
F8
ENDCHAR
STARTCHAR idieresis
ENCODING 149
SWIDTH 307 0
DWIDTH 8 0
BBX 5 12 2 0
BITMAP
88
00
00
00
E0
20
20
20
20
20
20
F8
ENDCHAR
STARTCHAR ntilde
ENCODING 150
SWIDTH 692 0
DWIDTH 14 0
BBX 12 13 1 0
BITMAP
1840
2480
4300
0000
0000
E780
2840
3040
2040
2040
2040
2040
F9F0
ENDCHAR
STARTCHAR oacute
ENCODING 151
SWIDTH 538 0
DWIDTH 10 0
BBX 7 13 2 0
BITMAP
04
08
10
00
00
38
44
82
82
82
82
44
38
ENDCHAR
STARTCHAR ograve
ENCODING 152
SWIDTH 538 0
DWIDTH 10 0
BBX 7 13 2 0
BITMAP
20
10
08
00
00
38
44
82
82
82
82
44
38
ENDCHAR
STARTCHAR ocircumflex
ENCODING 153
SWIDTH 538 0
DWIDTH 10 0
BBX 7 13 2 0
BITMAP
10
28
44
00
00
38
44
82
82
82
82
44
38
ENDCHAR
STARTCHAR odieresis
ENCODING 154
SWIDTH 538 0
DWIDTH 10 0
BBX 7 12 2 0
BITMAP
44
00
00
00
38
44
82
82
82
82
44
38
ENDCHAR
STARTCHAR otilde
ENCODING 155
SWIDTH 538 0
DWIDTH 10 0
BBX 9 13 1 0
BITMAP
3080
4900
8600
0000
0000
1C00
2200
4100
4100
4100
4100
2200
1C00
ENDCHAR
STARTCHAR uacute
ENCODING 156
SWIDTH 692 0
DWIDTH 14 0
BBX 12 13 1 0
BITMAP
0100
0200
0400
0000
0000
E1C0
2040
2040
2040
2040
20C0
2140
1E70
ENDCHAR
STARTCHAR ugrave
ENCODING 157
SWIDTH 692 0
DWIDTH 14 0
BBX 12 13 1 0
BITMAP
0800
0400
0200
0000
0000
E1C0
2040
2040
2040
2040
20C0
2140
1E70
ENDCHAR
STARTCHAR ucircumflex
ENCODING 158
SWIDTH 692 0
DWIDTH 14 0
BBX 12 13 1 0
BITMAP
0400
0A00
1100
0000
0000
E1C0
2040
2040
2040
2040
20C0
2140
1E70
ENDCHAR
STARTCHAR udieresis
ENCODING 159
SWIDTH 692 0
DWIDTH 14 0
BBX 12 12 1 0
BITMAP
1100
0000
0000
0000
E1C0
2040
2040
2040
2040
20C0
2140
1E70
ENDCHAR
STARTCHAR dagger
ENCODING 160
SWIDTH 769 0
DWIDTH 16 0
BBX 13 16 2 0
BITMAP
0080
0100
0200
0000
F8F8
2020
1040
1040
0880
0500
0200
0200
0200
0200
0200
0F80
ENDCHAR
STARTCHAR degree
ENCODING 161
SWIDTH 384 0
DWIDTH 8 0
BBX 5 5 2 7
BITMAP
70
88
88
88
70
ENDCHAR
STARTCHAR cent
ENCODING 162
SWIDTH 461 0
DWIDTH 10 0
BBX 7 16 2 -2
BITMAP
10
10
10
10
3C
52
90
90
90
90
52
3C
10
10
10
10
ENDCHAR
STARTCHAR sterling
ENCODING 163
SWIDTH 615 0
DWIDTH 14 0
BBX 10 12 2 0
BITMAP
1800
2400
2000
2000
2000
2000
F800
2000
2000
2040
2080
FF00
ENDCHAR
STARTCHAR section
ENCODING 164
SWIDTH 538 0
DWIDTH 12 0
BBX 8 20 2 -4
BITMAP
3C
42
81
81
80
40
38
44
82
81
81
41
22
1C
02
01
81
81
42
3C
ENDCHAR
STARTCHAR bullet
ENCODING 165
SWIDTH 461 0
DWIDTH 6 0
BBX 4 4 1 4
BITMAP
60
F0
F0
60
ENDCHAR
STARTCHAR paragraph
ENCODING 166
SWIDTH 692 0
DWIDTH 16 0
BBX 13 20 2 -4
BITMAP
3FF8
7F20
FF20
FF20
FF20
FF20
FF20
FF20
7F20
3F20
0120
0120
0120
0120
0120
0120
0120
0120
0120
0120
ENDCHAR
STARTCHAR germandbls
ENCODING 167
SWIDTH 538 0
DWIDTH 12 0
BBX 9 12 2 0
BITMAP
0E00
1100
2100
2100
EE00
2100
2080
2080
2080
2080
2900
E600
ENDCHAR
STARTCHAR registered
ENCODING 168
SWIDTH 615 0
DWIDTH 12 0
BBX 9 12 2 0
BITMAP
3E00
0800
0800
3E00
4900
8880
8880
4900
3E00
0800
0800
3E00
ENDCHAR
STARTCHAR copyright
ENCODING 169
SWIDTH 692 0
DWIDTH 16 0
BBX 13 12 2 0
BITMAP
0F80
3060
4010
4710
8888
9008
9008
8888
4710
4010
3060
0F80
ENDCHAR
STARTCHAR trademark
ENCODING 170
SWIDTH 769 0
DWIDTH 20 0
BBX 17 6 2 6
BITMAP
FE8080
10C180
10A280
109480
108880
108080
ENDCHAR
STARTCHAR acute
ENCODING 171
SWIDTH 230 0
DWIDTH 8 0
BBX 4 4 2 8
BITMAP
10
20
40
80
ENDCHAR
STARTCHAR dieresis
ENCODING 172
SWIDTH 384 0
DWIDTH 10 0
BBX 6 2 2 10
BITMAP
84
84
ENDCHAR
STARTCHAR notequal
ENCODING 173
SWIDTH 615 0
DWIDTH 12 0
BBX 9 11 2 0
BITMAP
0080
0100
0200
FF80
0400
0800
1000
FF80
2000
4000
8000
ENDCHAR
STARTCHAR AE
ENCODING 174
SWIDTH 923 0
DWIDTH 21 0
BBX 18 12 2 0
BITMAP
03FFC0
028040
048040
048000
088000
088400
1FFC00
108400
108000
208040
208040
F9FFC0
ENDCHAR
STARTCHAR Oslash
ENCODING 175
SWIDTH 615 0
DWIDTH 16 0
BBX 13 12 2 0
BITMAP
0F88
3070
4030
4050
8088
8308
8408
8808
5010
6010
7060
8F80
ENDCHAR
STARTCHAR infinity
ENCODING 176
SWIDTH 923 0
DWIDTH 20 0
BBX 17 9 2 2
BITMAP
3E3E00
414100
808080
808080
808080
808080
808080
414100
3E3E00
ENDCHAR
STARTCHAR plusminus
ENCODING 177
SWIDTH 615 0
DWIDTH 12 0
BBX 9 12 2 0
BITMAP
0800
0800
0800
0800
FF80
0800
0800
0800
0800
0000
0000
FF80
ENDCHAR
STARTCHAR lessequal
ENCODING 178
SWIDTH 615 0
DWIDTH 12 0
BBX 9 12 2 0
BITMAP
0080
0300
0C00
3000
C000
3000
0C00
0300
0080
0000
0000
FF80
ENDCHAR
STARTCHAR greaterequal
ENCODING 179
SWIDTH 615 0
DWIDTH 12 0
BBX 9 12 2 0
BITMAP
8000
6000
1800
0600
0180
0600
1800
6000
8000
0000
0000
FF80
ENDCHAR
STARTCHAR yen
ENCODING 180
SWIDTH 615 0
DWIDTH 12 0
BBX 9 12 2 0
BITMAP
E380
4100
2200
1400
0800
3E00
0800
3E00
0800
0800
0800
1C00
ENDCHAR
STARTCHAR mu
ENCODING 181
SWIDTH 538 0
DWIDTH 12 0
BBX 9 12 2 -4
BITMAP
8200
8200
8200
8200
8200
8200
C500
B880
8000
8000
8000
8000
ENDCHAR
STARTCHAR partialdiff
ENCODING 182
SWIDTH 461 0
DWIDTH 10 0
BBX 7 12 2 0
BITMAP
18
24
20
20
10
38
44
82
82
82
44
38
ENDCHAR
STARTCHAR summation
ENCODING 183
SWIDTH 615 0
DWIDTH 12 0
BBX 9 12 2 0
BITMAP
FF80
4080
2080
1000
0800
0400
0400
0800
1000
2080
4080
FF80
ENDCHAR
STARTCHAR product
ENCODING 184
SWIDTH 692 0
DWIDTH 16 0
BBX 13 12 2 0
BITMAP
FFF8
2020
2020
2020
2020
2020
2020
2020
2020
2020
2020
F8F8
ENDCHAR
STARTCHAR pi
ENCODING 185
SWIDTH 615 0
DWIDTH 14 0
BBX 12 9 1 0
BITMAP
0010
7FE0
9040
1040
1040
1040
1040
2020
4010
ENDCHAR
STARTCHAR integral
ENCODING 186
SWIDTH 461 0
DWIDTH 10 0
BBX 7 16 2 -4
BITMAP
38
44
82
82
84
B8
84
82
82
82
84
B8
80
80
80
80
ENDCHAR
STARTCHAR ordfeminine
ENCODING 187
SWIDTH 384 0
DWIDTH 8 0
BBX 5 12 2 2
BITMAP
80
80
80
80
B0
C8
88
88
88
90
A0
C0
ENDCHAR
STARTCHAR ordmasculine
ENCODING 188
SWIDTH 538 0
DWIDTH 12 0
BBX 8 14 2 0
BITMAP
04
04
25
26
2C
34
65
A6
2C
34
64
A4
20
20
ENDCHAR
STARTCHAR Omega
ENCODING 189
SWIDTH 615 0
DWIDTH 14 0
BBX 11 12 2 0
BITMAP
0E00
3180
4040
4040
8020
8020
4040
4040
2080
9120
9120
F1E0
ENDCHAR
STARTCHAR ae
ENCODING 190
SWIDTH 923 0
DWIDTH 16 0
BBX 13 8 2 0
BITMAP
78E0
8510
0E08
3270
4380
8200
8510
78E0
ENDCHAR
STARTCHAR oslash
ENCODING 191
SWIDTH 538 0
DWIDTH 10 0
BBX 9 10 1 -1
BITMAP
0080
1D00
2200
4500
4900
4900
5100
2200
5C00
8000
ENDCHAR
STARTCHAR questiondown
ENCODING 192
SWIDTH 461 0
DWIDTH 10 0
BBX 7 12 2 -4
BITMAP
10
00
00
00
10
10
20
40
82
82
44
38
ENDCHAR
STARTCHAR exclamdown
ENCODING 193
SWIDTH 307 0
DWIDTH 8 0
BBX 1 12 4 -4
BITMAP
80
00
00
00
80
80
80
80
80
80
80
80
ENDCHAR
STARTCHAR logicalnot
ENCODING 194
SWIDTH 615 0
DWIDTH 12 0
BBX 9 16 2 -4
BITMAP
0800
0800
0800
0800
8880
8880
8880
8880
8880
8880
4900
3E00
0800
0800
0800
0800
ENDCHAR
STARTCHAR radical
ENCODING 195
SWIDTH 615 0
DWIDTH 12 0
BBX 10 20 2 -4
BITMAP
0040
0040
0040
0080
0080
0080
0100
0100
8100
8200
8200
4200
4400
4400
4400
2800
2800
2800
1000
1000
ENDCHAR
STARTCHAR florin
ENCODING 196
SWIDTH 461 0
DWIDTH 12 0
BBX 9 16 2 -4
BITMAP
0800
0800
0800
0800
3E00
4900
8880
8880
8880
8880
4900
3E00
0800
0800
0800
0800
ENDCHAR
STARTCHAR approxequal
ENCODING 197
SWIDTH 615 0
DWIDTH 12 0
BBX 9 7 2 1
BITMAP
3080
4900
8600
0000
3080
4900
8600
ENDCHAR
STARTCHAR Delta
ENCODING 198
SWIDTH 769 0
DWIDTH 16 0
BBX 13 12 2 0
BITMAP
0200
0200
0500
0880
0880
1040
1040
2020
4010
4010
8008
FFF8
ENDCHAR
STARTCHAR guillemotleft
ENCODING 199
SWIDTH 538 0
DWIDTH 14 0
BBX 9 9 3 0
BITMAP
0880
1100
2200
4400
8800
4400
2200
1100
0880
ENDCHAR
STARTCHAR guillemotright
ENCODING 200
SWIDTH 538 0
DWIDTH 14 0
BBX 9 9 3 0
BITMAP
8800
4400
2200
1100
0880
1100
2200
4400
8800
ENDCHAR
STARTCHAR ellipsis
ENCODING 201
SWIDTH 1692 0
DWIDTH 34 0
BBX 23 1 5 0
BITMAP
801002
ENDCHAR
STARTCHAR uni00A0
ENCODING 202
SWIDTH 76 0
DWIDTH 3 0
BBX 1 1 3 -4
BITMAP
00
ENDCHAR
STARTCHAR Agrave
ENCODING 203
SWIDTH 923 0
DWIDTH 18 0
BBX 13 14 3 0
BITMAP
2040
6040
A080
2080
2100
2200
22F8
2410
0420
0870
1008
1008
2088
2070
ENDCHAR
STARTCHAR Atilde
ENCODING 204
SWIDTH 923 0
DWIDTH 18 0
BBX 14 14 3 0
BITMAP
F820
1020
2040
7040
0880
0900
8910
7230
0250
0490
09FC
0810
1010
1038
ENDCHAR
STARTCHAR Otilde
ENCODING 205
SWIDTH 615 0
DWIDTH 16 0
BBX 13 16 2 0
BITMAP
1C10
2220
41C0
0000
0F80
3060
4010
4010
8008
8008
8008
8008
4010
4010
3060
0F80
ENDCHAR
STARTCHAR OE
ENCODING 206
SWIDTH 1000 0
DWIDTH 22 0
BBX 19 12 2 0
BITMAP
0FFFE0
304020
404020
404200
804200
807E00
804200
804200
404000
404020
304020
0FFFE0
ENDCHAR
STARTCHAR oe
ENCODING 207
SWIDTH 923 0
DWIDTH 16 0
BBX 13 8 2 0
BITMAP
38E0
4510
8208
8270
8380
8200
4510
38E0
ENDCHAR
STARTCHAR endash
ENCODING 208
SWIDTH 384 0
DWIDTH 6 0
BBX 5 1 1 4
BITMAP
F8
ENDCHAR
STARTCHAR emdash
ENCODING 209
SWIDTH 1076 0
DWIDTH 16 0
BBX 15 1 1 4
BITMAP
FFFE
ENDCHAR
STARTCHAR quotedblleft
ENCODING 210
SWIDTH 538 0
DWIDTH 13 0
BBX 8 5 2 7
BITMAP
21
42
84
84
E7
ENDCHAR
STARTCHAR quotedblright
ENCODING 211
SWIDTH 538 0
DWIDTH 13 0
BBX 8 5 3 7
BITMAP
E7
21
21
42
84
ENDCHAR
STARTCHAR quoteleft
ENCODING 212
SWIDTH 307 0
DWIDTH 8 0
BBX 3 5 2 7
BITMAP
20
40
80
80
E0
ENDCHAR
STARTCHAR quoteright
ENCODING 213
SWIDTH 307 0
DWIDTH 8 0
BBX 3 5 3 7
BITMAP
E0
20
20
40
80
ENDCHAR
STARTCHAR divide
ENCODING 214
SWIDTH 615 0
DWIDTH 10 0
BBX 7 7 2 2
BITMAP
10
00
00
FE
00
00
10
ENDCHAR
STARTCHAR lozenge
ENCODING 215
SWIDTH 615 0
DWIDTH 10 0
BBX 7 7 2 2
BITMAP
82
44
28
10
28
44
82
ENDCHAR
STARTCHAR ydieresis
ENCODING 216
SWIDTH 692 0
DWIDTH 14 0
BBX 13 16 1 -4
BITMAP
0880
0000
0000
0000
F8F8
2020
1040
1040
0880
0880
0500
0200
0400
0400
0800
3000
ENDCHAR
STARTCHAR Ydieresis
ENCODING 217
SWIDTH 615 0
DWIDTH 12 0
BBX 9 7 2 1
BITMAP
3080
4900
8600
0000
0000
0000
FF80
ENDCHAR
STARTCHAR fraction
ENCODING 218
SWIDTH 923 0
DWIDTH 16 0
BBX 13 12 2 0
BITMAP
1000
2000
4000
FFF0
4000
2040
1020
0010
FFF8
0010
0020
0040
ENDCHAR
STARTCHAR currency
ENCODING 219
SWIDTH 923 0
DWIDTH 18 0
BBX 14 14 3 0
BITMAP
2040
6040
A080
2080
2100
2200
2238
2444
0444
0804
1008
1010
2020
207C
ENDCHAR
STARTCHAR guilsinglleft
ENCODING 220
SWIDTH 615 0
DWIDTH 16 0
BBX 13 12 2 0
BITMAP
FF80
2060
2010
2010
2008
F808
2008
2008
2010
2010
2060
FF80
ENDCHAR
STARTCHAR guilsinglright
ENCODING 221
SWIDTH 538 0
DWIDTH 10 0
BBX 7 12 2 0
BITMAP
68
10
28
04
02
3A
46
82
82
82
44
38
ENDCHAR
STARTCHAR uniFB01
ENCODING 222
SWIDTH 538 0
DWIDTH 13 0
BBX 10 12 2 0
BITMAP
F800
2000
3F00
2080
2040
2040
2040
2080
3F00
2000
2000
F800
ENDCHAR
STARTCHAR uniFB02
ENCODING 223
SWIDTH 615 0
DWIDTH 12 0
BBX 9 16 2 -4
BITMAP
E000
2000
2000
2000
2E00
3100
2080
2080
2080
2080
3100
2E00
2000
2000
2000
F800
ENDCHAR
STARTCHAR daggerdbl
ENCODING 224
SWIDTH 692 0
DWIDTH 14 0
BBX 13 17 1 -4
BITMAP
0080
0100
0200
0000
0000
F8F8
2020
1040
1040
0880
0880
0500
0200
0400
0400
0800
3000
ENDCHAR
STARTCHAR periodcentered
ENCODING 225
SWIDTH 923 0
DWIDTH 16 0
BBX 13 7 2 2
BITMAP
0040
0020
0010
FFF8
0010
0020
0040
ENDCHAR
STARTCHAR quotesinglbase
ENCODING 226
SWIDTH 923 0
DWIDTH 16 0
BBX 13 7 2 2
BITMAP
1000
2000
4000
FFF8
4000
2000
1000
ENDCHAR
STARTCHAR quotedblbase
ENCODING 227
SWIDTH 615 0
DWIDTH 14 0
BBX 11 12 2 0
BITMAP
FFE0
8020
8020
0000
2100
3F00
2100
0000
0000
8020
8020
FFE0
ENDCHAR
STARTCHAR perthousand
ENCODING 228
SWIDTH 384 0
DWIDTH 10 0
BBX 7 8 2 0
BITMAP
3E
40
80
F8
80
80
40
3E
ENDCHAR
STARTCHAR Acircumflex
ENCODING 229
SWIDTH 923 0
DWIDTH 18 0
BBX 13 14 3 0
BITMAP
2040
6040
A080
2080
2100
2200
2220
2460
04A0
0920
13F8
1020
2020
2070
ENDCHAR
STARTCHAR Ecircumflex
ENCODING 230
SWIDTH 461 0
DWIDTH 12 0
BBX 9 8 2 0
BITMAP
3F80
4400
8400
0400
0400
0400
0800
1000
ENDCHAR
STARTCHAR Aacute
ENCODING 231
SWIDTH 769 0
DWIDTH 16 0
BBX 13 16 2 0
BITMAP
0080
0100
0200
0000
0200
0200
0500
0500
0880
0880
1040
1040
1FC0
2020
2020
F8F8
ENDCHAR
STARTCHAR Edieresis
ENCODING 232
SWIDTH 692 0
DWIDTH 16 0
BBX 13 12 2 0
BITMAP
0F80
3060
4010
4010
8888
8F88
8888
8008
4010
4010
3060
0F80
ENDCHAR
STARTCHAR Egrave
ENCODING 233
SWIDTH 769 0
DWIDTH 16 0
BBX 13 12 2 0
BITMAP
8F88
8208
8208
4210
4210
3260
0F80
0200
0200
0200
0200
0F80
ENDCHAR
STARTCHAR Iacute
ENCODING 234
SWIDTH 384 0
DWIDTH 8 0
BBX 5 16 2 0
BITMAP
08
10
20
00
F8
20
20
20
20
20
20
20
20
20
20
F8
ENDCHAR
STARTCHAR Icircumflex
ENCODING 235
SWIDTH 769 0
DWIDTH 16 0
BBX 13 8 2 0
BITMAP
2020
4010
8008
8208
8208
8208
4510
38E0
ENDCHAR
STARTCHAR Idieresis
ENCODING 236
SWIDTH 538 0
DWIDTH 12 0
BBX 9 8 2 0
BITMAP
3880
4480
8500
8200
8200
8500
4480
3880
ENDCHAR
STARTCHAR Igrave
ENCODING 237
SWIDTH 538 0
DWIDTH 14 0
BBX 11 12 2 -4
BITMAP
6020
9020
0840
0880
0480
0500
0500
0200
0200
0200
1200
0C00
ENDCHAR
STARTCHAR Oacute
ENCODING 238
SWIDTH 615 0
DWIDTH 16 0
BBX 13 16 2 0
BITMAP
0080
0100
0200
0000
0F80
3060
4010
4010
8008
8008
8008
8008
4010
4010
3060
0F80
ENDCHAR
STARTCHAR Ocircumflex
ENCODING 239
SWIDTH 615 0
DWIDTH 14 0
BBX 11 12 2 0
BITMAP
FFE0
2020
2020
2000
2000
2000
2000
2000
2000
2000
2000
F800
ENDCHAR
STARTCHAR NameMe.240
ENCODING 240
SWIDTH 461 0
DWIDTH 8 0
BBX 5 8 2 0
BITMAP
88
90
A0
C0
C0
A0
90
88
ENDCHAR
STARTCHAR Ograve
ENCODING 241
SWIDTH 538 0
DWIDTH 10 0
BBX 8 12 1 0
BITMAP
C0
20
10
10
08
08
14
24
42
42
81
81
ENDCHAR
STARTCHAR Uacute
ENCODING 242
SWIDTH 769 0
DWIDTH 18 0
BBX 15 16 2 0
BITMAP
0040
0080
0100
0000
F83E
2008
2008
2008
2008
2008
2008
2008
2008
1010
0820
07C0
ENDCHAR
STARTCHAR Ucircumflex
ENCODING 243
SWIDTH 461 0
DWIDTH 10 0
BBX 7 16 2 -4
BITMAP
82
44
38
10
20
40
40
80
80
80
40
3C
02
02
04
78
ENDCHAR
STARTCHAR Ugrave
ENCODING 244
SWIDTH 538 0
DWIDTH 14 0
BBX 11 12 2 -4
BITMAP
6020
9040
1080
0900
0A00
0400
0400
0A00
1200
2100
4120
80C0
ENDCHAR
STARTCHAR dotlessi
ENCODING 245
SWIDTH 538 0
DWIDTH 14 0
BBX 11 8 2 0
BITMAP
C080
2040
1020
1020
1020
1040
0880
0700
ENDCHAR
STARTCHAR circumflex
ENCODING 246
SWIDTH 692 0
DWIDTH 16 0
BBX 13 12 2 0
BITMAP
38E0
4510
8208
8208
0200
0200
0200
0200
0200
0200
0200
0F80
ENDCHAR
STARTCHAR tilde
ENCODING 247
SWIDTH 461 0
DWIDTH 12 0
BBX 9 8 1 0
BITMAP
C080
2080
2100
2200
2400
2800
3000
2000
ENDCHAR
STARTCHAR macron
ENCODING 248
SWIDTH 384 0
DWIDTH 8 0
BBX 5 13 2 1
BITMAP
80
80
88
98
A8
C8
88
98
A8
C8
88
08
08
ENDCHAR
STARTCHAR breve
ENCODING 249
SWIDTH 615 0
DWIDTH 12 0
BBX 9 9 2 1
BITMAP
FF80
0000
0000
0000
FF80
0000
0000
0000
FF80
ENDCHAR
STARTCHAR dotaccent
ENCODING 250
SWIDTH 538 0
DWIDTH 14 0
BBX 11 12 2 -4
BITMAP
6780
9840
1020
1020
1020
1020
1020
1020
0020
0020
0020
0020
ENDCHAR
STARTCHAR ring
ENCODING 251
SWIDTH 307 0
DWIDTH 8 0
BBX 4 8 3 0
BITMAP
80
80
80
80
80
90
90
60
ENDCHAR
ENDFONT
